<?xml version='1.0' encoding='utf-8'?>
<svg xmlns="http://www.w3.org/2000/svg" viewBox="0 0 443.03 339.82"> <path d="m220.32 5e-4c-0.76752 0-2.8861 3.3699-4.6804 7.4886-4.7442 10.89-5.0512 11.36-8.0177 11.803-1.4865 0.22208-3.3402 1.1473-4.1106 2.0756-0.77045 0.92834-3.1441 9.9778-5.2909 20.105-3.157 14.893-3.9317 21.606-3.9478 35.042-0.010986 9.1367-0.46976 17.29-1.0175 18.152-0.74945 1.1791-20.622 1.756-80.381 2.3199-43.673 0.41205-85.966 1.1004-93.974 1.5059-20.017 1.0134-19.143-0.28882-18.762 28.164 0.16534 12.348 0.76359 22.934 1.3431 23.524 1.2351 1.2578 4.0562 1.5642 89.294 9.3201 35.815 3.2588 73.799 6.723 84.41 7.6921 10.611 0.96912 19.808 2.2542 20.431 2.8896 1.1606 1.1844 2.3741 8.0987 12.372 68.863 3.7605 22.854 5.3449 35.558 4.5176 36.385-0.6994 0.6994-14.201 2.8555-29.995 4.8025-19.984 2.4634-29.723 4.2407-32.071 5.7792l-3.378 2.1978 0.8954 16.442c0.49994 9.0508 1.3406 16.922 1.8722 17.46 0.53156 0.53742 15.876 1.0261 34.106 1.0989 20.408 0.081482 33.795 0.64673 34.798 1.4652 0.89539 0.73102 1.628 4.0735 1.628 7.4479s0.37717 6.5227 0.85471 7.0002c2.7647 2.7648 5.6572-1.9868 5.6572-9.3201 0-3.4999 0.63648-5.4055 2.0349-5.9421 1.1331-0.43481 16.957-0.77325 35.164-0.77325s33.172-0.14654 33.21-0.32562c0.71457-3.3587 1.1901-27.354 0.6105-30.443-1.3469-7.1794-5.9295-8.8354-36.182-12.942-14.85-2.016-27.687-4.0936-28.571-4.6396-1.2418-0.76746-0.46994-8.3193 3.4187-33.292 2.7671-17.77 6.2848-40.955 7.8142-51.484s3.0741-19.435 3.4594-19.82c0.38532-0.38532 35.239-4.5095 77.45-9.1573s85.259-9.3904 95.643-10.541 19.615-2.7145 20.512-3.4594c0 0 0.86487-10.958 1.2617-21.896 0.39679-10.938 0.32562-21.856 0.32562-21.856-0.21899-1.6486-1.4845-3.0238-2.442-4.3548l-2.4827-3.0524-189.74-1.3024-0.8547-18.925c-0.84198-18.667-4.65-41.238-8.5061-50.467-1.1803-2.8248-3.3509-5.0186-6.1456-6.1862-2.8856-1.2057-4.8379-3.2391-5.9014-6.1049-3.3495-9.0258-5.2874-12.739-6.6339-12.739zm-0.0814 5.1281c2.4709 0.93915 4.5514 9.2123 5.1281 12.739-2.7028 0.11026-8.0778-0.35858-10.175 0.3663 0.26169-2.2362 2.7125-11.926 5.0467-13.105zm-5.006 17.134c1.6074-0.026428 3.3198-0.018555 5.0874 0.04071 3.1129 0.10434 5.4582 0.066864 7.2851 0.08139 5.4807-0.011475 6.1202 0.63403 7.6514 2.971 2.1962 3.3518 6.9415 28.752 5.7386 29.954-0.37906 0.37903-9.2766 1.0103-19.78 1.4244-17.134 0.6756-19.186 0.54596-19.943-1.4244-1.0571-2.7548 2.9307-30.073 4.8025-31.949 0.57132-0.57242 4.3352-1.0196 9.1573-1.0989zm26.332 35.774c1.5291 2.0361 1.0147 6.9754-0.32559 9.4421-14.6-10.924-36.482-3.4946-40.455-0.48834 3.1e-5 -2.025-1.7081-7.6728-0.28488-8.5468 7.1635 1.1583 28.581 0.55731 41.065-0.40698zm-21.693 5.4943c1.8166 0.029602 3.808 0.17267 6.9595 0.36633 4.8841 0.43024 8.6668 2.1119 12.25 4.9246 1.8093 1.9992 2.1403 4.6143 1.8314 14.041l0.1221 11.558 0.3256 6.0642c0.60654 0.95679 1.0879 17.594 1.0989 36.955 0.020111 35.481-0.93146 47.202-7.163 88.52-1.0803 7.163-2.9631 19.454-3.9071 27.35-7.3634 61.825-4.6653 35.93-6.3897 8.5468-0.33612-5.3375-1.0503-9.9634-1.3431-10.256-1.6941-1.694-3.3061 2.1102-3.4187 7.977-1.0385 47.005-1.9909 30.023-5.0874 0.56976-0.003998-1.239-0.85608-6.8066-1.9128-12.373-1.0568-5.5659-3.1537-16.833-4.6397-25.071-1.486-8.2375-3.2544-17.908-3.9071-21.489-0.65274-3.5815-1.7689-10.028-2.4827-14.326-1.4124-8.5046-2.4237-86.015-1.1396-87.3 0.35272-5.9421 0.70544-11.884 1.0582-17.826 0-10.726 1.5468-14.043 7.7328-16.605 1.7779-0.73639 3.1599-1.2445 4.2327-1.3024 2.3379-0.27795 3.9627-0.35516 5.7793-0.32562zm137.44 36.019c8.2489-0.015991 16.166-0.009644 23.239 0l52.624 0.0814 0.3663 15.262c0.35944 14.968 0.30829 15.256-2.6047 15.913-5.2498 1.1836-67.146 5.9574-93.364 7.2444-13.968 0.68567-37.997 2.4364-53.397 3.8664-30.568 2.8384-35.608 3.0563-36.914 1.7501-0.47754-0.47754-0.85468-10.405-0.85468-22.059v-21.164l41.35-0.4884c17.057-0.19775 44.808-0.35907 69.555-0.40698zm79.526 0.1628c0.73877 0 2.9657 1.8152 3.378 2.8896 0.74493 5.5961 0.32367 11.265 0.2442 16.89-0.014526 12.959-1.2451 25.27-2.8082 24.623-2.4702-1.0225-2.4737-44.403-0.81396-44.403zm-241.71 0.4477c1.0657 4.382 1.1846 6.288 1.8314 23.28l-0.3663 20.472-8.791 0.1221c-5.3723 0.080933-21.489-0.30304-35.815-0.85468-14.326-0.55158-36.597-1.3211-49.49-1.7094-31.465-0.94745-81.881-3.3295-87.015-4.1513-3.9061-0.6253-4.1868-1.0434-4.9653-7.4479-0.45427-3.7372-0.63354-11.192-0.40699-16.564l0.407-9.7678 7.8142-0.814c4.2978-0.43646 40.862-0.89923 80.259-1.0175 39.397-0.11822 76.683-0.52362 82.863-0.9361 3.2697-0.2182 11.55-0.5863 13.675-0.61047zm-188.68 3.4187c1.8853 5.2642 0.74837 15.309 0.89538 21.001 0.32922 18.235-0.12472 25.157-2.442 21.408-0.47189-0.76355-1.3789-9.3859-2.035-19.169-1.1226-16.74 0.64562-23.51 3.5815-23.239zm426.08 31.867c1.0289 2.1122 1.7147 6.2555 0.61047 9.5236-0.89539 0.30939-22.7 2.8796-45.868 5.413-48.348 5.2867-47.062 5.7469-50.101 5.006-0.8063-3.6785-1.1937-9.2605-0.3663-12.169 1.7674-0.91095 10.183-1.3085 17.704-1.7908 7.5212-0.48224 27.38-2.0673 44.158-3.5001 14.681-1.2537 30.219-2.54 33.862-2.4826zm-420.95 5.6572c1.1426-0.14038 3.0753 0.23975 6.3491 0.44769 6.4311-0.050232 20.265 0.73639 46.804 2.2792 21.05 1.2236 37.252 1.8834 42.897 2.6454 0.65964 1.9253 0.2442 4.9346 0.2442 6.5526-5.1514 0.011292-0.57762 0.19666-14.245-0.89539-7.2165-0.57654-12.434-0.46796-13.186 0.28491 0.48048 3.1322-4.6853 2.0062-8.3026 1.9128-9.1704-0.23651-57.428-5.2607-59.787-5.535-3.3445-0.38904-2.3783-3.3549-2.3198-5.006 0.066132-1.8666 0.40398-2.5458 1.5466-2.6862zm319.37 0.7326c0.89645-0.020203 1.7894-0.007019 2.6861 0 1.018 2.2342 0.99811 10.644 0.28491 14.204-3.5333 1.2101-1.2283 0.46234-44.525 4.8025-18.266 1.831-34.733 3.4639-36.588 3.6629-1.8552 0.19898-4.5516 0.68823-4.8839-0.12207-1.3395-3.2666-1.2365-11.463 0.1221-14.285 1.2438-1.2731 44.23-5.593 74.846-7.8142 2.6824-0.19922 5.3691-0.38721 8.0584-0.44769zm-218.68 4.0292h9.4422c13.35-0.005127 70.024 2.5616 73.625 3.3373 2.7282 0.58777 2.9618 1.2615 2.6047 7.4479l-0.6105 7.4886-7.57-0.4884c-7.8226 0.20264-72.796-5.5148-75.863-6.6747-0.93135-0.35217-1.628-2.8569-1.628-5.8607v-5.2502zm109.52 120.7c1.2767-7.7604 1.4719-3.0721 1.8772 13.48 0.40527 16.552 0.68402 38.248 0.56979 54.455-0.84402 0.88129-1.7469 1.3268-2.4826-0.6919-0.84-9.0039-0.1817-17.962-0.16727-35.327 0.014435-17.364-0.51208-22.162 0.20294-31.917zm11.442 12.015c0.39548-0.005066 0.91028 0.091614 1.5872 0.28485 1.3451-0.025574 3.2842 0.14874 6.1863 0.44769 12.662 1.3044 45.058 6.0198 46.316 6.7968 0.59406 0.36713 0.52911 4.547 0.52911 9.4422 0 6.9146 0.33874 8.7153-1.2617 10.378-2.9976 0.43481-16.192 0.12207-31.176 0.12207-25.088 0-27.251-0.18036-27.228-2.2791 0.038086-3.3648 2.7563-20.098 3.4187-22.954 0.31586-1.362 0.44156-2.2233 1.628-2.2384zm-22.995 1.6279c0.5806-0.015625 1.0224-0.039734 1.3024 0 2.6608 0.37762 3.1711 1.6486 5.006 12.535 1.4246 8.452 1.6215 12.383 0.65118 12.983-0.76504 0.47314-13.691 1.1127-28.734 1.3838-21.171 0.38153-28.517 0.883-31.176 0.16278-0.4287-5.5136-0.77899-17.077 0.24419-19.942 2.9029-1.4582 43.997-6.8879 52.705-7.1224zm-57.426 8.1398c2.2422-0.52368 1.7908 6.7973 1.7908 16.402 0 9.6075 0.32085 14.913-1.7094 15.181-2.2664 0.29889-1.5466-4.126-1.5466-15.181 0.088181-4.5685-1.2543-15.848 1.4652-16.402zm139.56 0.0814c2.6694-0.1839 1.8738 2.4551 1.9536 15.344 0.057739 9.2712-0.2619 16.239-1.1803 16.239-2.3014 0-2.552 0.58832-2.157-17.989 0.16974-7.9836-0.69788-13.847 1.3838-13.594zm-54.333 19.902c6.3657-0.013184 17.318 0.33844 27.065 0.32556 9.7466-0.012878 19.081 0.36383 21.733 0.77332 0.8523 1.9044 1.0175 2.3814 1.0175 5.2095v5.4944h-10.5c-5.1932 0.005066-13.252 0.083069-17.908 0-7.3208-0.13062-11.584 0.55102-11.599-2.3605-0.081818-1.1205-4.2182-0.77356-10.419-0.89539-10.394-0.20435-10.339 0.11182-9.4829-8.3026 4.4066-0.22656 6.0138-0.23578 10.093-0.2442zm-34.431 1.0175c6.7711-0.054077 11.646 0.25458 14.977 0.28491 0.21567 7.7167 1.0989 6.0357-12.088 6.5526-8.6901 0.34058-11.307 0.76642-13.268 1.5466 0.34665 2.897-5.3814 2.6454-17.867 2.6454-12.811 0-15.878-0.019531-18.64-0.61054 0.043839-1.5988 0.10541-7.8631 0.5291-9.198 1.2901-0.48724 4.0357-0.32251 27.838-0.89532 7.808-0.18793 13.852-0.30762 18.518-0.32562z" fill="#007fff"/> </svg>